# xmcd
#
# Track frame offsets: 
#        150
#        35150
#        61804
#        83857
#        107132
#        131308
#        159529
#        190688
#        217219
#        243054
#
# Disc length: 3566 seconds
#
# Revision: 0
# Processed by: cddbd v1.5.2PL0 Copyright (c) Steve Scherf et al.
# Submitted via: ExactAudioCopyFreeDBPlugin 1.0
#
DISCID=840dec0a
DTITLE=New Boyz Brass Band - Mama It Must Be That Tuba
DYEAR=2013
DGENRE=New Orleans Brass Band
TTITLE0=Thinkin About You
TTITLE1=On The Spot
TTITLE2=Voodoo
TTITLE3=Later Than You Think
TTITLE4=Dilemma
TTITLE5=We Are One
TTITLE6=Lovely Day
TTITLE7=Rockin
TTITLE8=Fire
TTITLE9=Doo Wa Ditty
EXTD=
EXTT0=
EXTT1=
EXTT2=
EXTT3=
EXTT4=
EXTT5=
EXTT6=
EXTT7=
EXTT8=
EXTT9=
PLAYORDER=
